# xmcd CD database file
#
# Track frame offsets:
#	150
#	15728
#	27634
#	46418
#	56997
#	68442
#	93513
#	108590
#	119817
#	131336
#	143002
#	159911
#	174440
#	183296
#	195465
#	215229
#	224845
#
# Disc length: 3232 seconds
#
# Revision: 0
# Processed by: cddbd v1.5PL3 Copyright (c) Steve Scherf et al.
# Submitted via: CDex 1.51
#
DISCID=030c9e11
DTITLE=Trainrobbers - At The Baryton
DYEAR=1991
DGENRE=Country
TTITLE0=Tonight The Bottle Let Me Down
TTITLE1=Ruby (Don't Take Your Love To Town)
TTITLE2=Mending Fences
TTITLE3=Devil In Disguise
TTITLE4=Streets Of Bakersfield
TTITLE5=El Paso
TTITLE6=South Of The Border
TTITLE7=Last Fair Deal Gone Down
TTITLE8=Stuck On You
TTITLE9=Money Honey
TTITLE10=You Win Again
TTITLE11=Walkin' And Talkin'
TTITLE12=Marie's The Name (His Latest Flame)
TTITLE13=Lonesome Cowboy
TTITLE14=Train Leaves Here This Morning
TTITLE15=She's Not You
TTITLE16=Detroit City
EXTD=YEAR: 1991
EXTT0=
EXTT1=
EXTT2=
EXTT3=
EXTT4=
EXTT5=
EXTT6=
EXTT7=
EXTT8=
EXTT9=
EXTT10=
EXTT11=
EXTT12=
EXTT13=
EXTT14=
EXTT15=
EXTT16=
PLAYORDER=
